{"title":"Sket 2011 DVDRiP AC3 XViD  - INSPiRAL","uid":7074927,"size":1534281651,"categoryP":"video","categoryS":"movies","magnet":"?xt=urn:btih:20429a3fc97dd773346a98d8b1f15a474d598df8&amp;dn=Sket+2011+DVDRiP+AC3+XViD++-+INSPiRAL&amp;tr=udp%3A%2F%2Ftracker.openbittorrent.com%3A80&amp;tr=udp%3A%2F%2Fopen.demonii.com%3A1337&amp;tr=udp%3A%2F%2Ftracker.coppersurfer.tk%3A6969&amp;tr=udp%3A%2F%2Fexodus.desync.com%3A6969","seeders":1,"leechers":0,"uploader":"Hackulus","files":-1,"time":1330802292,"description":"\n\n\nTITLE:\n\nSket 2011 DVDRiP AC3 XViD  - INSPiRAL\n\nIMDB:\n &lt;a href=&quot;\nhttp://www.imdb.com/title/tt1658820/&quot; rel=&quot;nofollow&quot; target=&quot;_NEW&quot;&gt;\nhttp://www.imdb.com/title/tt1658820/&lt;/a&gt;\n\n\nSOURCES: legend rg\n\nVIDEO -  THANKS\nAUDIO -  THANKS\nSUBS  - None Add\n\nSTATS:\n\nComplete name                            : Sket 2011 DVDRiP AC3 XViD  - INSPiRALSAMPLE SK  - INSPiRAL.avi\nFormat                                   : AVI\nFormat/Info                              : Audio Video Interleave\nFile size                                : 44.8 MiB\nDuration                                 : 1mn 16s\nOverall bit rate                         : 4 921 Kbps\nWriting library                          : VirtualDub build 32842/release\n\nVideo\nID                                       : 0\nFormat                                   : MPEG-4 Visual\nFormat profile                           : Advanced Simple@L5\nFormat settings, BVOP                    : 2\nFormat settings, QPel                    : No\nFormat settings, GMC                     : No warppoints\nFormat settings, Matrix                  : Default (MPEG)\nMuxing mode                              : Packed bitstream\nCodec ID                                 : XVID\nCodec ID/Hint                            : XviD\nDuration                                 : 1mn 16s\nBit rate                                 : 4 462 Kbps\nWidth                                    : 720 pixels\nHeight                                   : 304 pixels\nDisplay aspect ratio                     : 2.35:1\nFrame rate                               : 25.000 fps\nColor space                              : YUV\nChroma subsampling                       : 4:2:0\nBit depth                                : 8 bits\nScan type                                : Progressive\nCompression mode                         : Lossy\nBits/(Pixel*Frame)                       : 0.815\nStream size                              : 40.7 MiB (91%)\nWriting library                          : XviD 64\n\nAudio\nID                                       : 1\nFormat                                   : AC-3\nFormat/Info                              : Audio Coding 3\nMode extension                           : CM (complete main)\nCodec ID                                 : 2000\nDuration                                 : 1mn 16s\nBit rate mode                            : Constant\nBit rate                                 : 448 Kbps\nChannel(s)                               : 6 channels\nChannel positions                        : Front: L C R, Side: L R, LFE\nSampling rate                            : 48.0 KHz\nBit depth                                : 16 bits\nCompression mode                         : Lossy\nStream size                              : 4.08 MiB (9%)\nAlignment                                : Aligned on interleaves\nInterleave, duration                     : 40 ms (1.01 video frame)\nInterleave, preload duration             : 512 ms\n\n\n\n\nNOTES:\nRIPPED AS IT SHOULD BE RIPPED. RESULT = VERY NICE.\n\n","torrent":{"xt":"urn:btih:20429a3fc97dd773346a98d8b1f15a474d598df8","amp;dn":"Sket+2011+DVDRiP+AC3+XViD++-+INSPiRAL","amp;tr":["udp%3A%2F%2Ftracker.openbittorrent.com%3A80","udp%3A%2F%2Fopen.demonii.com%3A1337","udp%3A%2F%2Ftracker.coppersurfer.tk%3A6969","udp%3A%2F%2Fexodus.desync.com%3A6969"],"infoHash":"20429a3fc97dd773346a98d8b1f15a474d598df8","infoHashBuffer":{"type":"Buffer","data":[32,66,154,63,201,125,215,115,52,106,152,216,177,241,90,71,77,89,141,248]},"announce":[],"urlList":[]}}